<?xml version="1.0" encoding="utf-8"?>
<!-- Generator: Adobe Illustrator 23.0.6, SVG Export Plug-In . SVG Version: 6.00 Build 0)  -->
<svg version="1.1" id="Layer_1" xmlns="http://www.w3.org/2000/svg" xmlns:xlink="http://www.w3.org/1999/xlink" x="0px" y="0px"
	 viewBox="0 0 80 80" style="enable-background:new 0 0 80 80;" xml:space="preserve">
<style type="text/css">
	.st0{fill:#4CAF50;}
	.st1{fill:#FFFFFF;}
</style>
<g>
	<circle class="st0" cx="40" cy="40" r="40"/>
	<g>
		<path class="st1" d="M22.76,14.98c1,0.08,1.61,0.69,2.16,1.48c1.75,2.52,3.54,5.01,5.32,7.5c0.78,1.09,0.98,2.26,0.57,3.53
			c-0.06,0.19-0.12,0.38-0.17,0.58c-0.25,0.98-0.64,1.84-1.34,2.63c-1.52,1.72-1.64,3.76-0.95,5.88c0.75,2.32,2.16,4.25,3.73,6.08
			c2.2,2.55,4.58,4.92,7.47,6.71c1.24,0.76,2.54,1.36,4.01,1.55c1.78,0.24,3.33-0.26,4.66-1.44c0.47-0.41,0.96-0.71,1.57-0.84
			c0.5-0.1,0.99-0.26,1.48-0.39c1.19-0.31,2.29-0.11,3.27,0.62c2.65,1.98,5.3,3.96,7.95,5.95c0.92,0.69,1.15,1.63,0.66,2.66
			c-0.6,1.25-1.14,2.55-1.86,3.73c-0.39,0.64-1.07,1.14-1.7,1.58c-2.58,1.8-5.5,2.36-8.59,2.24c-3.66-0.15-7.09-1.2-10.35-2.78
			c-8.14-3.93-14.55-9.88-19.78-17.17c-2.72-3.78-4.82-7.89-5.99-12.41c-0.9-3.48-1.18-6.99-0.07-10.49
			c0.55-1.75,1.4-3.36,2.72-4.63c0.52-0.5,1.25-0.78,1.91-1.12c0.82-0.43,1.66-0.81,2.5-1.22C22.19,15.12,22.47,15.05,22.76,14.98z"
			/>
		<path class="st1" d="M61.5,27.49l-4.62-3.46l-3.84-2.88c-0.97-0.73-2.35-0.04-2.35,1.18v1.65c-1.73,0.35-5.95,1.55-8.51,5.29
			c-2.15,3.13-1.84,7.82-1.53,10.08c0.06,0.41,0.6,0.51,0.81,0.14c2.74-4.94,7.4-6.62,9.23-7.11V35c0,1.21,1.38,1.91,2.35,1.18
			l3.84-2.88l4.62-3.46C62.29,29.25,62.29,28.07,61.5,27.49z"/>
	</g>
</g>
</svg>
