<svg width="92" height="60" viewBox="0 0 92 60" fill="none" xmlns="http://www.w3.org/2000/svg">
<path d="M31.9233 9.03666C32.2543 8.8846 32.4035 8.55458 32.6306 8.30383C33.6429 7.17952 34.7735 6.19757 36.0323 5.35798C37.6253 4.29514 39.3513 3.53157 41.2071 3.0592C42.938 2.61918 44.6948 2.48977 46.4727 2.60462C46.6739 2.61756 46.8766 2.6208 47.0778 2.63051C48.4047 2.66286 49.6652 3.01714 50.9045 3.45392C52.1504 3.89394 53.3167 4.49573 54.4214 5.21885C55.1255 5.6799 55.8116 6.16036 56.4362 6.72494C57.1207 7.34129 57.7583 8.00132 58.352 8.70503C59.5767 10.1545 60.5225 11.769 61.2541 13.5129C61.7326 14.6534 62.0619 15.8392 62.3231 17.046C62.6767 18.6766 62.7286 20.3316 62.6475 21.9865C62.5583 23.8307 62.1836 25.6328 61.5315 27.3654C61.0902 28.5366 60.5533 29.6642 59.8898 30.7383C59.1679 31.9063 58.3374 32.9853 57.3835 33.964C56.6 34.7664 55.7403 35.4847 54.8026 36.1172C53.7644 36.8161 52.6873 37.4308 51.5274 37.8919C50.293 38.382 49.0212 38.7509 47.7007 38.9418C47.5304 38.966 47.3601 38.8722 47.1978 38.966C45.7622 39.0259 44.3282 39.076 42.8974 38.8576C40.9492 38.5616 39.108 37.963 37.3723 37.028C35.5927 36.0703 34.0403 34.8311 32.6841 33.3396C32.483 33.1196 32.3402 32.8413 32.058 32.699C31.6038 32.2088 31.2388 31.6523 30.877 31.0942C30.7781 30.9421 30.658 30.8046 30.5753 30.6413C29.9021 29.5558 29.3587 28.4072 28.9191 27.2085C28.5005 26.068 28.2118 24.8951 28.0577 23.6932C27.9165 22.6028 27.8014 21.5044 27.85 20.4043C27.8744 19.8592 27.8809 19.3156 27.9084 18.7721C27.923 18.4728 28.0074 18.1784 28.0544 17.8791C28.2394 16.7014 28.4859 15.5318 28.9012 14.4139C29.3716 13.1473 29.9232 11.9146 30.6824 10.7822C31.0474 10.237 31.3864 9.67566 31.7952 9.16122C31.8309 9.10946 31.8601 9.05607 31.9233 9.03666Z" fill="#5CB772"/>
<path d="M77.8523 41.0691C76.2431 40.5369 74.6338 40.0063 73.0246 39.4741C71.2321 38.882 69.4396 38.2899 67.6455 37.7027C65.5058 37.0006 63.3629 36.3066 61.2249 35.6029C60.6019 35.399 59.9871 35.1742 59.3675 34.9606C59.322 34.8328 59.4259 34.7811 59.4989 34.718C60.8258 33.5629 61.9305 32.2186 62.8633 30.7335C63.7376 29.3423 64.4076 27.8605 64.8634 26.2816C65.0873 25.5067 65.3193 24.7351 65.4182 23.9311C65.4296 23.8421 65.3793 23.6641 65.5869 23.6949C65.7637 24.3387 65.9795 24.9648 66.2893 25.5601C67.3178 27.5369 68.927 28.7923 71.0521 29.4216C72.4439 29.8325 73.8649 29.826 75.2973 29.7403C76.3712 29.6756 77.3948 29.4232 78.4038 29.0786C78.8045 28.9427 78.8045 28.9427 78.7315 28.5157C78.5628 27.5353 78.2627 26.5938 77.8863 25.675C77.7566 25.3579 77.6884 25.3174 77.351 25.4258C76.6356 25.6555 75.9137 25.8513 75.1627 25.9192C74.2656 26.0001 73.3799 25.9532 72.525 25.6442C71.2629 25.188 70.4908 24.2675 70.1339 23.009C69.6667 21.3637 69.6602 19.6959 70.0787 18.0393C70.2377 17.4133 70.494 16.8212 70.9061 16.3003C71.5809 15.4478 72.478 15.0207 73.5291 14.8718C74.6793 14.7085 75.7856 14.9236 76.879 15.2601C77.0233 15.3054 77.1677 15.3572 77.3121 15.4008C77.45 15.4429 77.5489 15.4025 77.6089 15.2698C78.0696 14.2523 78.4281 13.2056 78.5368 12.0845C78.5514 11.9292 78.4817 11.8403 78.3373 11.7901C77.3899 11.4569 76.4312 11.1754 75.4222 11.0864C74.7247 11.0249 74.0288 11.0087 73.3312 11.0314C71.1429 11.1026 69.2336 11.8548 67.6844 13.4127C66.7354 14.3687 66.1109 15.5335 65.7053 16.8163C65.6486 16.9959 65.6307 17.1949 65.4701 17.3275C65.2965 17.224 65.3193 17.0315 65.2803 16.8746C65.0824 16.0916 64.9007 15.3054 64.6282 14.5451C63.8528 12.3887 62.7838 10.4021 61.2589 8.66791C60.7171 8.05318 60.1656 7.45301 59.5491 6.91269C59.4956 6.86578 59.4015 6.82695 59.4486 6.7218C59.8363 5.99059 60.1526 5.22703 60.4478 4.457C61.1146 2.71795 62.2485 1.49496 64.1059 1.03391C65.1976 0.762135 66.2374 0.975673 67.2789 1.33642C68.7275 1.83792 70.1939 2.28764 71.6506 2.76648C72.8868 3.17415 74.1164 3.59475 75.3509 4.00404C78.1767 4.94069 81.0042 5.87412 83.83 6.80592C84.9509 7.17476 86.0719 7.53874 87.1928 7.90597C87.2398 7.92053 87.2804 7.94965 87.3258 7.97067C87.9763 8.30069 88.4873 8.79409 88.8961 9.38618C89.3909 10.0996 89.7153 10.8777 89.7899 11.7626C89.8613 12.6184 89.6747 13.4272 89.4541 14.2361C89.24 15.0255 89.0502 15.8198 88.8604 16.6157C88.7339 17.1447 88.596 17.6705 88.4565 18.1979C88.2375 19.0261 88.0607 19.8657 87.8352 20.694C87.7054 21.1712 87.6065 21.6549 87.4848 22.1338C87.3712 22.5803 87.2544 23.03 87.1458 23.4797C86.9527 24.2837 86.7613 25.0893 86.5309 25.8836C86.432 26.2234 86.3622 26.5695 86.2828 26.9125C86.0167 28.0724 85.7166 29.2242 85.4262 30.376C85.1359 31.5295 84.8504 32.6845 84.5503 33.8363C84.3524 34.5967 84.148 35.3586 83.9874 36.1302C83.6645 37.693 83.0254 39.0971 81.7585 40.126C81.0609 40.6922 80.2434 41.0384 79.3349 41.1775C78.8304 41.2519 78.3454 41.1743 77.8523 41.0691Z" fill="#E69596"/>
<path d="M31.9233 9.03667C31.9136 9.28095 31.7092 9.41845 31.581 9.58022C31.1771 10.0914 30.877 10.6641 30.5218 11.2012C30.1389 11.7803 29.834 12.4015 29.5549 13.0324C29.1624 13.9206 28.8185 14.8265 28.58 15.7728C28.3659 16.6205 28.2166 17.4779 28.0901 18.3418C27.8954 19.6634 27.9036 20.9851 27.9879 22.3068C28.0771 23.7029 28.3075 25.086 28.7357 26.4174C29.0083 27.2651 29.3003 28.1192 29.7318 28.9119C30.0448 29.4878 30.3449 30.0702 30.6515 30.6494C30.4844 31.057 30.186 31.3822 29.9556 31.7494C29.5906 32.3302 29.2305 32.9158 28.8493 33.4868C28.3561 34.2261 27.9068 34.9929 27.4055 35.7274C26.7469 36.6964 26.2278 37.7608 25.4605 38.6522C24.3915 39.8946 23.0159 40.3848 21.3905 40.2181C21.1066 40.189 20.8357 40.1275 20.5713 40.0272C19.8186 39.6374 19.0626 39.254 18.3164 38.8544C17.3091 38.3173 16.3098 37.7657 15.304 37.2254C13.943 36.4925 12.582 35.7646 11.2194 35.035C8.89317 33.7893 6.56371 32.5518 4.24398 31.2948C3.44587 30.8629 2.61044 30.4941 1.8691 29.9634C1.09046 29.4053 0.563245 28.6596 0.250164 27.7553C-0.200804 26.4562 -0.00776372 25.23 0.555135 24.0022C1.24456 22.5009 1.86099 20.9657 2.51311 19.4467C3.43289 17.3064 4.35916 15.1678 5.28056 13.0292C5.87915 11.6396 6.46962 10.2483 7.06821 8.85872C7.82252 7.10674 8.59144 5.36284 9.33278 3.606C9.68641 2.76802 10.1358 2.0077 10.7944 1.37032C12.1846 0.0243763 14.2902 -0.475498 16.1265 0.535574C17.5946 1.34281 19.074 2.13226 20.5518 2.92171C22.2454 3.82763 23.9438 4.72061 25.6374 5.62653C27.1249 6.42244 28.6076 7.22645 30.0903 8.03045C30.7034 8.36694 31.3458 8.64357 31.9233 9.03667Z" fill="#F7C01C"/>
<path d="M59.4534 6.71849C60.6101 7.70206 61.598 8.84093 62.4642 10.0817C63.2867 11.2578 63.9291 12.5293 64.4563 13.8656C64.8975 14.9834 65.1846 16.1401 65.4653 17.3016C65.5593 17.4181 65.5691 17.562 65.5918 17.6995C65.8108 19.0859 65.9081 20.4772 65.7929 21.8813C65.7508 22.3925 65.7329 22.9054 65.6632 23.4149C65.6486 23.5217 65.6534 23.6414 65.5431 23.711C65.3874 24.8223 65.0873 25.8965 64.7385 26.9593C64.3735 28.0707 63.8755 29.1222 63.3142 30.1446C62.8276 31.0295 62.2306 31.84 61.6061 32.6311C60.9361 33.4787 60.1656 34.2342 59.3675 34.959C58.8905 35.3132 58.425 35.6837 57.9367 36.0202C54.8302 38.1572 51.3896 39.1537 47.618 39.0097C47.4769 39.0049 47.3373 38.979 47.1978 38.9628C47.5855 38.8204 48.0008 38.8107 48.4015 38.7331C49.2937 38.56 50.1599 38.3028 51.0132 37.9986C51.8097 37.7139 52.5867 37.3791 53.3151 36.9504C53.8001 36.6656 54.2689 36.3502 54.7442 36.0493C55.6559 35.4718 56.4589 34.7729 57.2116 34.0207C58.2011 33.0306 59.056 31.9274 59.8006 30.7302C60.4624 29.6642 61.0026 28.5463 61.4439 27.3832C61.9175 26.1343 62.2209 24.8353 62.4156 23.5071C62.5989 22.2534 62.6264 20.9964 62.5697 19.7411C62.5356 18.9953 62.4821 18.2463 62.3166 17.5022C62.1495 16.7499 62.0133 15.9864 61.7861 15.2519C61.4374 14.1212 61.0059 13.0211 60.443 11.9728C59.9547 11.0653 59.4275 10.1853 58.7916 9.37801C58.1817 8.60474 57.549 7.85251 56.8093 7.18924C56.4281 6.84791 56.0533 6.5001 55.651 6.18302C54.9876 5.6605 54.2819 5.19784 53.5519 4.77238C52.9517 4.42295 52.3385 4.08808 51.6929 3.83572C50.8234 3.49762 49.9474 3.16922 49.0228 2.98965C48.3999 2.86832 47.7851 2.71788 47.1492 2.68552C47.1248 2.68391 47.1038 2.64993 47.081 2.63052C47.8272 2.53346 48.5767 2.54963 49.3229 2.58846C51.3312 2.69199 53.2551 3.15628 55.0979 3.96352C56.626 4.63325 58.0097 5.52785 59.2896 6.59069C59.3399 6.63437 59.3967 6.67643 59.4534 6.71849Z" fill="#49916A"/>
<path d="M77.8523 41.069C78.1151 40.9607 78.3454 41.1515 78.6082 41.1435C79.4063 41.1176 80.1509 40.9493 80.8695 40.5983C81.6709 40.2068 82.2646 39.5921 82.7837 38.9013C83.2071 38.3367 83.4926 37.6896 83.6727 37.0053C83.916 36.0849 84.1431 35.1611 84.3783 34.239C84.5389 33.6098 84.7092 32.9805 84.8666 32.3496C85.1229 31.3094 85.3695 30.2676 85.6258 29.2274C85.8561 28.2859 86.0865 27.3443 86.3298 26.4077C86.5569 25.5341 86.7775 24.6606 86.9981 23.787C87.1247 23.2871 87.2463 22.7775 87.3599 22.2728C87.4621 21.8198 87.6016 21.362 87.7054 20.9058C87.8206 20.3995 87.9682 19.9029 88.0915 19.3981C88.2261 18.8449 88.3429 18.2884 88.5165 17.7416C88.7014 17.156 88.8182 16.5429 88.9496 15.9378C89.1232 15.1435 89.3422 14.3622 89.545 13.576C89.7315 12.8577 89.8175 12.12 89.6828 11.4034C89.5352 10.6204 89.2221 9.8811 88.7031 9.24372C88.4143 8.88944 88.0834 8.5837 87.7362 8.29089C87.5967 8.1728 87.4377 8.08706 87.2593 8.04014C87.2236 8.03044 87.1652 8.01911 87.2431 7.98029C87.269 7.96735 87.3031 7.9722 87.3323 7.96896C88.231 8.26662 89.1654 8.47531 89.9538 9.0496C91.5938 10.2467 92.3011 12.2478 91.8176 14.257C91.0601 17.4116 90.322 20.5726 89.5758 23.7304C88.9658 26.309 88.3527 28.8876 87.7411 31.4663C87.2415 33.5742 86.771 35.6901 86.2341 37.7883C85.7815 39.5613 84.7693 40.9251 83.0368 41.6579C82.1154 42.0478 81.1534 42.1222 80.1882 41.8278C79.4047 41.5899 78.6309 41.3214 77.8523 41.069Z" fill="#C67381"/>
<path d="M20.5713 40.0321C20.8308 40.0046 21.079 40.0984 21.3288 40.1356C22.672 40.333 23.8513 39.9561 24.8912 39.144C25.4151 38.7347 25.7801 38.1636 26.1354 37.6007C26.6091 36.8549 27.0811 36.1075 27.5532 35.3601C27.8906 34.8263 28.2215 34.2908 28.5622 33.7602C28.9742 33.1164 29.3944 32.479 29.8096 31.8368C30.0221 31.51 30.2265 31.1783 30.4423 30.8548C30.4958 30.7755 30.5299 30.6671 30.6499 30.651C31.0944 31.2657 31.4805 31.9241 31.9752 32.5033C32.0174 32.5534 32.0288 32.6311 32.0547 32.6958C30.9273 34.4041 29.8161 36.1237 28.6676 37.8191C28.1712 38.5503 27.7722 39.3527 27.1103 39.969C26.2927 40.731 25.3292 41.1273 24.2228 41.2179C23.1116 41.3085 22.1351 40.9348 21.2023 40.3896C20.9947 40.2667 20.7822 40.1502 20.5713 40.0321Z" fill="#E79532"/>
<path d="M39.4665 20.2216C39.4665 17.321 39.4714 14.422 39.46 11.5215C39.4584 11.2076 39.5427 11.0831 39.8672 11.041C42.1042 10.7514 44.346 10.5945 46.5879 10.9148C47.9262 11.1057 49.1866 11.5296 50.1502 12.5665C50.8558 13.3269 51.1852 14.2312 51.2533 15.2503C51.3295 16.3811 51.1219 17.4391 50.4665 18.3854C50.2346 18.7219 49.9458 19.0067 49.6327 19.2606C49.4137 19.4386 49.4916 19.5049 49.6911 19.5939C50.5298 19.974 51.2273 20.5225 51.7156 21.3103C52.3839 22.3909 52.5024 23.5816 52.3953 24.811C52.3126 25.7736 52.0157 26.6633 51.4155 27.4382C50.8088 28.2228 50.0074 28.7307 49.086 29.064C47.618 29.5946 46.0866 29.6998 44.5455 29.7256C42.9428 29.7531 41.3531 29.5655 39.7617 29.4183C39.4973 29.394 39.4649 29.2614 39.4665 29.0397C39.4681 26.102 39.4665 23.1626 39.4665 20.2216Z" fill="white"/>
<path d="M65.5431 23.711C65.7572 22.035 65.8205 20.3574 65.6372 18.675C65.5869 18.2156 65.5236 17.7594 65.4652 17.3016C65.7945 16.2501 66.1887 15.2293 66.8344 14.3201C68.1175 12.5131 69.8743 11.4535 72.0416 11.0766C73.693 10.7886 75.346 10.8841 76.9746 11.2643C77.484 11.3823 77.9739 11.5862 78.4752 11.7399C78.6568 11.7949 78.6374 11.9275 78.626 12.0553C78.5725 12.6167 78.4833 13.1764 78.3016 13.7102C78.1231 14.2344 77.9382 14.7569 77.7176 15.2681C77.6122 15.5124 77.4937 15.5674 77.2391 15.4703C76.2382 15.0885 75.2 14.8685 74.1277 14.9009C72.8251 14.9397 71.6912 15.3652 70.8898 16.4587C70.4015 17.1252 70.1404 17.892 70.0138 18.6896C69.7932 20.084 69.8143 21.4785 70.1777 22.8568C70.6173 24.5231 71.8161 25.5794 73.521 25.8043C74.7506 25.9661 75.9364 25.7946 77.106 25.4176C77.9447 25.1475 77.7614 25.1685 78.0469 25.8528C78.4362 26.7846 78.6909 27.7569 78.8661 28.7518C78.8986 28.9378 78.8353 29.0187 78.6568 29.0802C77.5667 29.4603 76.462 29.7499 75.2989 29.8227C73.826 29.9165 72.3628 29.9165 70.9401 29.4765C68.3073 28.6628 66.5618 26.9318 65.6859 24.3273C65.6193 24.1267 65.5447 23.9277 65.5431 23.711Z" fill="white"/>
<path d="M23.6518 29.153C23.1084 29.1821 22.4871 29.0866 21.8625 29.0187C21.6549 28.996 21.5446 28.8957 21.4894 28.6903C21.2283 27.7067 20.9525 26.7264 20.6929 25.7428C20.6313 25.5083 20.5696 25.4209 20.2825 25.5002C19.121 25.8189 17.9368 25.9143 16.738 25.7218C16.399 25.6668 16.0567 25.628 15.7274 25.5228C15.5409 25.463 15.4322 25.4807 15.3705 25.7315C15.1353 26.6908 14.8596 27.6404 14.6065 28.5965C14.5351 28.865 14.4151 28.9944 14.1004 29.0397C12.8432 29.2177 11.599 29.1691 10.3531 28.9637C10.1244 28.9265 10.0903 28.8424 10.1552 28.6418C10.5624 27.3622 10.9647 26.0825 11.3654 24.8013C11.938 22.9717 12.5041 21.142 13.08 19.3124C13.724 17.2628 14.3761 15.2147 15.025 13.1651C15.2651 12.4048 15.5149 11.6477 15.7453 10.8857C15.7956 10.7223 15.8686 10.6657 16.0324 10.6431C17.4761 10.4522 18.9199 10.4716 20.3636 10.6366C20.5161 10.6544 20.6264 10.6851 20.6783 10.8566C21.2039 12.5827 21.7376 14.3056 22.2697 16.0301C22.8699 17.9745 23.4701 19.919 24.0736 21.8635C24.7743 24.1251 25.4768 26.3867 26.1808 28.6466C26.244 28.8505 26.2359 28.9491 25.9764 28.9831C25.2318 29.0802 24.4888 29.1611 23.6518 29.153Z" fill="white"/>
<path d="M43.9048 23.8487C43.9048 23.2128 43.9048 22.5754 43.9048 21.9396C43.9048 21.8118 43.8999 21.6921 44.0832 21.6953C44.8408 21.7147 45.5983 21.6694 46.3446 21.8846C47.798 22.302 48.382 24.0654 47.4055 25.2303C47.0242 25.6849 46.463 25.8742 45.8822 25.981C45.2982 26.0878 44.711 26.0441 44.1238 26.0392C43.9324 26.0376 43.8983 25.9227 43.8999 25.7593C43.9064 25.1219 43.9032 24.4845 43.9048 23.8487Z" fill="#5CB772"/>
<path d="M43.8967 16.1823C43.8967 15.6678 43.9064 15.1533 43.8918 14.6389C43.8853 14.3768 43.9486 14.2603 44.2438 14.2667C44.7499 14.2765 45.2577 14.2635 45.7443 14.4204C46.6544 14.7149 47.1151 15.5707 46.9172 16.5657C46.7241 17.5332 46.2505 17.8503 45.2739 18.0299C44.9105 18.0962 44.5277 18.0622 44.1546 18.0816C43.9551 18.093 43.8918 18.0088 43.895 17.8147C43.9048 17.2711 43.8983 16.7259 43.8983 16.1807C43.8983 16.1823 43.8983 16.1823 43.8967 16.1823Z" fill="#5CB772"/>
<path d="M18.112 15.5819C18.2791 16.2517 18.4349 16.8632 18.5873 17.4747C18.9394 18.8934 19.2816 20.3138 19.6466 21.7293C19.7229 22.0253 19.6304 22.1159 19.3546 22.1677C18.4576 22.3359 17.5686 22.3796 16.6796 22.1207C16.4785 22.0625 16.3893 21.9929 16.4493 21.7648C16.9781 19.7573 17.4989 17.7464 18.0228 15.7356C18.0309 15.7033 18.0585 15.6725 18.112 15.5819Z" fill="#F6BF1C"/>
<path d="M45.9828 60C71.3782 60 91.9653 58.8049 91.9653 57.3306C91.9653 55.8563 71.3782 54.6611 45.9828 54.6611C20.5874 54.6611 0.000343323 55.8563 0.000343323 57.3306C0.000343323 58.8049 20.5874 60 45.9828 60Z" fill="#88BECC"/>
</svg>
