<svg width="187" height="123" viewBox="0 0 187 123" fill="none" xmlns="http://www.w3.org/2000/svg">
<path d="M64.9112 19.3747C65.5841 19.0655 65.8876 18.3945 66.3494 17.8846C68.4076 15.5985 70.7066 13.6018 73.2662 11.8946C76.5053 9.73353 80.0149 8.18094 83.7884 7.22044C87.3078 6.32573 90.8801 6.06258 94.4952 6.29613C94.9042 6.32244 95.3165 6.32902 95.7255 6.34876C98.4237 6.41454 100.987 7.13492 103.507 8.02305C106.04 8.91776 108.411 10.1414 110.658 11.6118C112.089 12.5492 113.484 13.5262 114.754 14.6742C116.146 15.9274 117.443 17.2695 118.65 18.7004C121.14 21.6477 123.063 24.9305 124.551 28.4764C125.524 30.7954 126.193 33.2065 126.725 35.6604C127.444 38.9761 127.549 42.3411 127.384 45.7062C127.203 49.4561 126.441 53.1204 125.115 56.6434C124.218 59.0249 123.126 61.3176 121.777 63.5017C120.309 65.8766 118.62 68.0707 116.681 70.0607C115.088 71.6923 113.339 73.1528 111.433 74.4389C109.322 75.8599 107.132 77.1099 104.773 78.0474C102.263 79.044 99.6771 79.794 96.9921 80.1822C96.6458 80.2315 96.2994 80.0407 95.9696 80.2315C93.0505 80.3532 90.1346 80.4552 87.2254 80.0111C83.2639 79.4091 79.5201 78.1921 75.9908 76.2908C72.3724 74.3435 69.2157 71.8238 66.4582 68.791C66.0492 68.3437 65.7589 67.7779 65.185 67.4884C64.2614 66.4918 63.5193 65.3602 62.7837 64.2254C62.5825 63.9162 62.3384 63.6366 62.1702 63.3044C60.8013 61.0972 59.6964 58.7617 58.8025 56.3243C57.9515 54.0053 57.3643 51.6205 57.051 49.1765C56.764 46.9594 56.5298 44.7259 56.6288 42.4892C56.6783 41.3806 56.6914 40.2754 56.7475 39.1702C56.7772 38.5616 56.9487 37.963 57.0444 37.3544C57.4204 34.9598 57.9218 32.5816 58.7662 30.3086C59.7227 27.733 60.8442 25.2265 62.3879 22.9239C63.1301 21.8154 63.8194 20.674 64.6506 19.628C64.7232 19.5227 64.7826 19.4142 64.9112 19.3747Z" fill="#5CB772"/>
<path d="M158.301 84.5078C155.029 83.4256 151.757 82.3467 148.485 81.2645C144.84 80.0606 141.195 78.8567 137.547 77.6626C133.196 76.2351 128.839 74.8239 124.491 73.393C123.225 72.9786 121.975 72.5213 120.715 72.0872C120.622 71.8273 120.833 71.722 120.982 71.5937C123.68 69.2451 125.926 66.5116 127.823 63.492C129.601 60.6631 130.963 57.6501 131.89 54.4396C132.345 52.864 132.817 51.295 133.018 49.6602C133.041 49.4792 132.939 49.1174 133.361 49.1799C133.721 50.4891 134.159 51.7621 134.789 52.9726C136.881 56.9922 140.153 59.5447 144.474 60.8243C147.304 61.6598 150.193 61.6467 153.106 61.4723C155.289 61.3407 157.371 60.8276 159.422 60.127C160.237 59.8507 160.237 59.8507 160.089 58.9823C159.745 56.9889 159.135 55.0745 158.37 53.2061C158.106 52.5614 157.968 52.4792 157.282 52.6995C155.827 53.1666 154.359 53.5647 152.832 53.7028C151.008 53.8673 149.207 53.7719 147.469 53.1436C144.902 52.216 143.332 50.3443 142.607 47.7852C141.657 44.4399 141.644 41.0486 142.495 37.6802C142.818 36.4073 143.339 35.2033 144.177 34.1442C145.549 32.4107 147.373 31.5423 149.51 31.2396C151.849 30.9074 154.099 31.3449 156.322 32.0291C156.615 32.1212 156.909 32.2264 157.202 32.3153C157.483 32.4008 157.684 32.3186 157.806 32.0488C158.743 29.9798 159.472 27.8516 159.693 25.572C159.722 25.2563 159.581 25.0753 159.287 24.9734C157.361 24.2958 155.411 23.7234 153.36 23.5425C151.941 23.4175 150.526 23.3846 149.108 23.4307C144.658 23.5754 140.776 25.1049 137.626 28.2726C135.696 30.2166 134.426 32.585 133.602 35.1935C133.486 35.5586 133.45 35.9632 133.124 36.2329C132.771 36.0224 132.817 35.631 132.738 35.3119C132.335 33.7198 131.966 32.1212 131.412 30.5752C129.835 26.1904 127.661 22.1511 124.561 18.6249C123.459 17.3749 122.338 16.1545 121.084 15.0559C120.975 14.9605 120.784 14.8816 120.88 14.6677C121.668 13.1809 122.311 11.6284 122.912 10.0626C124.267 6.52653 126.573 4.03976 130.35 3.10229C132.569 2.54967 134.684 2.98387 136.801 3.7174C139.747 4.73711 142.729 5.65155 145.691 6.62521C148.204 7.45413 150.704 8.30937 153.215 9.14159C158.96 11.0461 164.71 12.9441 170.456 14.8388C172.735 15.5888 175.014 16.3289 177.293 17.0756C177.389 17.1052 177.471 17.1644 177.564 17.2071C178.887 17.8782 179.926 18.8814 180.757 20.0854C181.763 21.536 182.422 23.1182 182.574 24.9174C182.719 26.6575 182.34 28.3022 181.891 29.9469C181.456 31.5521 181.07 33.1672 180.684 34.7856C180.427 35.8612 180.147 36.9303 179.863 38.0026C179.418 39.6868 179.058 41.3939 178.6 43.0781C178.336 44.0485 178.134 45.032 177.887 46.0057C177.656 46.9135 177.419 47.828 177.198 48.7424C176.805 50.3772 176.416 52.0154 175.948 53.6304C175.746 54.3212 175.605 55.0251 175.443 55.7225C174.902 58.081 174.292 60.423 173.701 62.765C173.111 65.1104 172.53 67.459 171.92 69.801C171.518 71.347 171.102 72.8963 170.776 74.4654C170.119 77.6429 168.82 80.4981 166.243 82.5901C164.825 83.7414 163.163 84.4453 161.316 84.7282C160.29 84.8795 159.304 84.7216 158.301 84.5078Z" fill="#E69596"/>
<path d="M64.9112 19.3747C64.8914 19.8714 64.4758 20.151 64.2153 20.4799C63.3939 21.5194 62.7837 22.6838 62.0614 23.7759C61.2829 24.9535 60.6628 26.2166 60.0955 27.4995C59.2973 29.3053 58.598 31.1474 58.1131 33.0717C57.6777 34.7953 57.3742 36.5387 57.117 38.2952C56.7211 40.9826 56.7376 43.6701 56.9092 46.3575C57.0906 49.1962 57.559 52.0086 58.4298 54.7158C58.9839 56.4394 59.5776 58.1762 60.455 59.788C61.0916 60.959 61.7018 62.1432 62.3252 63.3208C61.9855 64.1497 61.3786 64.8109 60.9102 65.5576C60.168 66.7385 59.4358 67.9292 58.6606 69.0904C57.6579 70.5936 56.7442 72.1528 55.725 73.6462C54.3858 75.6165 53.3303 77.7809 51.7701 79.5934C49.5965 82.1196 46.7994 83.1163 43.4943 82.7775C42.9171 82.7183 42.3662 82.5933 41.8286 82.3893C40.2981 81.5966 38.761 80.817 37.2437 80.0045C35.1954 78.9125 33.1635 77.7908 31.1184 76.6921C28.351 75.202 25.5836 73.7218 22.8129 72.2383C18.0829 69.7055 13.3463 67.1891 8.6295 64.6333C7.00665 63.755 5.30794 63.005 3.80054 61.9261C2.21728 60.7913 1.14527 59.2749 0.50867 57.4361C-0.408304 54.7947 -0.0157864 52.3014 1.12878 49.8047C2.53063 46.7522 3.78405 43.6306 5.11003 40.5419C6.98026 36.19 8.86369 31.8414 10.7372 27.4929C11.9544 24.6673 13.155 21.8384 14.3721 19.0129C15.9059 15.4505 17.4694 11.9045 18.9768 8.33225C19.6959 6.62835 20.6095 5.08234 21.9487 3.78633C24.7755 1.04957 29.0569 0.0331475 32.7908 2.08901C35.7759 3.73041 38.7841 5.33563 41.789 6.94084C45.2326 8.7829 48.6861 10.5986 52.1297 12.4407C55.1544 14.0591 58.1692 15.6939 61.184 17.3287C62.4308 18.0129 63.737 18.5754 64.9112 19.3747Z" fill="#F7C01C"/>
<path d="M120.89 14.661C123.241 16.661 125.25 18.9767 127.012 21.4996C128.684 23.891 129.99 26.4765 131.062 29.1935C131.959 31.4665 132.543 33.8184 133.114 36.1801C133.305 36.417 133.325 36.7097 133.371 36.9893C133.816 39.8083 134.014 42.6372 133.78 45.4924C133.694 46.5318 133.658 47.5746 133.516 48.6107C133.486 48.8278 133.496 49.0712 133.272 49.2127C132.955 51.4725 132.345 53.6566 131.636 55.8177C130.894 58.0775 129.881 60.2156 128.74 62.2945C127.75 64.0938 126.537 65.7418 125.267 67.3503C123.904 69.0739 122.338 70.6101 120.715 72.0837C119.745 72.8041 118.798 73.5574 117.806 74.2415C111.489 78.5868 104.493 80.6131 96.824 80.3203C96.537 80.3105 96.2533 80.2578 95.9697 80.2249C96.758 79.9355 97.6024 79.9157 98.4171 79.7578C100.231 79.4059 101.993 78.8829 103.728 78.2645C105.347 77.6855 106.927 77.0046 108.408 76.1329C109.394 75.554 110.348 74.9126 111.314 74.3008C113.168 73.1264 114.801 71.7054 116.331 70.1759C118.343 68.1628 120.081 65.9194 121.595 63.4853C122.941 61.3176 124.04 59.0446 124.937 56.6796C125.9 54.1402 126.517 51.4988 126.913 48.7982C127.285 46.2489 127.341 43.6931 127.226 41.1405C127.157 39.6241 127.048 38.1011 126.711 36.588C126.372 35.0585 126.095 33.5059 125.633 32.0125C124.924 29.7132 124.046 27.4764 122.902 25.3449C121.909 23.4996 120.837 21.7102 119.544 20.0688C118.304 18.4964 117.017 16.9669 115.513 15.6182C114.738 14.9242 113.976 14.2169 113.158 13.5722C111.809 12.5098 110.374 11.569 108.89 10.7039C107.669 9.99339 106.423 9.31249 105.11 8.79934C103.342 8.11186 101.561 7.44412 99.6804 7.079C98.4138 6.83229 97.1637 6.52638 95.8707 6.46059C95.8212 6.4573 95.7784 6.38823 95.7322 6.34875C97.2495 6.15139 98.7734 6.18429 100.291 6.26323C104.374 6.47375 108.286 7.4178 112.033 9.0592C115.14 10.421 117.954 12.24 120.556 14.4012C120.659 14.49 120.774 14.5755 120.89 14.661Z" fill="#49916A"/>
<path d="M158.301 84.5077C158.835 84.2873 159.304 84.6755 159.838 84.659C161.461 84.6064 162.975 84.2643 164.436 83.5505C166.065 82.7545 167.273 81.5045 168.328 80.0999C169.189 78.9519 169.77 77.6362 170.136 76.2448C170.63 74.3731 171.092 72.4949 171.571 70.6199C171.897 69.3404 172.243 68.0608 172.563 66.7779C173.084 64.6629 173.586 62.5445 174.107 60.4294C174.575 58.515 175.044 56.6006 175.539 54.6961C176 52.9198 176.449 51.1435 176.898 49.3673C177.155 48.3508 177.402 47.3147 177.633 46.2884C177.841 45.3674 178.125 44.4365 178.336 43.5089C178.57 42.4793 178.87 41.4695 179.121 40.4432C179.394 39.3182 179.632 38.1867 179.985 37.0748C180.361 35.8841 180.598 34.6374 180.866 33.4072C181.219 31.7921 181.664 30.2033 182.076 28.6047C182.455 27.1442 182.63 25.6443 182.356 24.1871C182.056 22.595 181.42 21.0918 180.364 19.7957C179.777 19.0754 179.104 18.4537 178.398 17.8583C178.115 17.6182 177.791 17.4438 177.429 17.3484C177.356 17.3287 177.237 17.3057 177.396 17.2267C177.448 17.2004 177.518 17.2103 177.577 17.2037C179.404 17.809 181.304 18.2333 182.907 19.401C186.242 21.8352 187.68 25.9041 186.697 29.9895C185.157 36.4038 183.656 42.8313 182.139 49.2521C180.899 54.4954 179.652 59.7387 178.408 64.9819C177.392 69.268 176.436 73.5705 175.344 77.8368C174.424 81.442 172.365 84.2149 168.843 85.705C166.969 86.4978 165.013 86.6491 163.051 86.0504C161.457 85.5669 159.884 85.0208 158.301 84.5077Z" fill="#C67381"/>
<path d="M41.8286 82.3992C42.3564 82.3433 42.861 82.5341 43.369 82.6097C46.1001 83.011 48.4981 82.2446 50.6124 80.5933C51.6778 79.7611 52.42 78.6 53.1424 77.4553C54.1055 75.9389 55.0654 74.4192 56.0252 72.8995C56.7113 71.814 57.3842 70.7252 58.0769 69.6463C58.9147 68.3371 59.769 67.0411 60.6134 65.7352C61.0455 65.0708 61.4611 64.3964 61.8998 63.7386C62.0086 63.5774 62.0779 63.357 62.322 63.3241C63.2258 64.5741 64.0108 65.9128 65.0168 67.0904C65.1026 67.1924 65.1257 67.3503 65.1785 67.4819C62.886 70.9555 60.6266 74.4521 58.2913 77.8993C57.2819 79.3861 56.4705 81.0177 55.1247 82.2709C53.4623 83.8202 51.503 84.6261 49.2535 84.8103C46.994 84.9945 45.0083 84.2347 43.1117 83.1262C42.6895 82.8762 42.2574 82.6393 41.8286 82.3992Z" fill="#E79532"/>
<path d="M80.2491 42.1175C80.2491 36.2196 80.259 30.325 80.2359 24.4272C80.2326 23.789 80.4041 23.5358 81.0638 23.4502C85.6124 22.8614 90.1709 22.5424 94.7294 23.1937C97.4506 23.5818 100.013 24.4436 101.973 26.5521C103.408 28.0981 104.077 29.9369 104.216 32.0092C104.371 34.3085 103.949 36.4597 102.616 38.384C102.144 39.0682 101.557 39.6471 100.921 40.1636C100.475 40.5254 100.634 40.6603 101.039 40.8412C102.745 41.6142 104.163 42.7293 105.156 44.3312C106.515 46.5285 106.756 48.9495 106.538 51.4494C106.37 53.4066 105.766 55.2158 104.546 56.7914C103.312 58.3867 101.683 59.4196 99.809 60.0972C96.8239 61.1761 93.7101 61.3899 90.5766 61.4426C87.3177 61.4985 84.0852 61.1169 80.8494 60.8176C80.3118 60.7683 80.2458 60.4985 80.2491 60.0479C80.2524 54.0744 80.2491 48.0976 80.2491 42.1175Z" fill="white"/>
<path d="M133.272 49.2127C133.707 45.8049 133.836 42.3938 133.463 38.9728C133.361 38.0386 133.232 37.111 133.114 36.1801C133.783 34.042 134.585 31.9664 135.898 30.1178C138.507 26.4436 142.079 24.289 146.486 23.5226C149.843 22.9371 153.205 23.1312 156.516 23.9042C157.552 24.1443 158.548 24.5588 159.567 24.8713C159.937 24.9831 159.897 25.2528 159.874 25.5127C159.765 26.6541 159.584 27.7922 159.214 28.8777C158.852 29.9435 158.476 31.0059 158.027 32.0454C157.813 32.5421 157.572 32.6539 157.054 32.4566C155.019 31.6803 152.908 31.2329 150.727 31.2987C148.079 31.3777 145.773 32.2428 144.144 34.4664C143.151 35.8216 142.62 37.3808 142.363 39.0024C141.914 41.8379 141.957 44.6733 142.696 47.4759C143.59 50.8639 146.027 53.0119 149.494 53.4691C151.994 53.7981 154.405 53.4494 156.783 52.683C158.489 52.1336 158.116 52.1764 158.697 53.5678C159.488 55.4625 160.006 57.4394 160.362 59.4624C160.428 59.8406 160.3 60.0051 159.937 60.1301C157.72 60.9031 155.474 61.4919 153.109 61.6399C150.114 61.8307 147.139 61.8307 144.246 60.936C138.893 59.2815 135.343 55.7618 133.562 50.4659C133.427 50.058 133.275 49.6534 133.272 49.2127Z" fill="white"/>
<path d="M48.0924 60.2781C46.9874 60.3373 45.7241 60.1433 44.4542 60.0051C44.032 59.9591 43.8077 59.7551 43.6955 59.3374C43.1645 57.3374 42.6037 55.3441 42.076 53.3441C41.9506 52.8672 41.8253 52.6895 41.2415 52.8507C38.8798 53.4987 36.4719 53.6928 34.0343 53.3014C33.3449 53.1895 32.6489 53.1106 31.9794 52.8968C31.6 52.7751 31.379 52.8112 31.2537 53.3211C30.7754 55.2717 30.2147 57.2026 29.7001 59.1466C29.555 59.6926 29.3109 59.9558 28.671 60.0479C26.1147 60.4097 23.5848 60.311 21.0515 59.8933C20.5865 59.8176 20.5172 59.6466 20.6491 59.2387C21.477 56.6368 22.2951 54.0349 23.1098 51.4297C24.2741 47.7094 25.4253 43.9891 26.5963 40.2688C27.9058 36.1012 29.2317 31.9368 30.5511 27.7692C31.0393 26.2232 31.5473 24.6838 32.0156 23.1345C32.1179 22.8022 32.2663 22.6871 32.5995 22.641C35.5351 22.2529 38.4707 22.2924 41.4064 22.6279C41.7164 22.6641 41.9407 22.7266 42.0463 23.0752C43.115 26.585 44.2002 30.0882 45.2821 33.5947C46.5025 37.5485 47.7229 41.5023 48.95 45.4562C50.3749 50.0547 51.8031 54.6533 53.2347 59.2486C53.3633 59.663 53.3468 59.8637 52.8191 59.9327C51.3051 60.1301 49.7944 60.2946 48.0924 60.2781Z" fill="white"/>
<path d="M89.2737 49.4926C89.2737 48.1998 89.2737 46.9037 89.2737 45.6108C89.2737 45.351 89.2638 45.1075 89.6365 45.1141C91.1769 45.1536 92.7173 45.0615 94.2346 45.499C97.19 46.3477 98.3775 49.9334 96.3918 52.302C95.6166 53.2264 94.4754 53.6113 93.2945 53.8284C92.1071 54.0455 90.913 53.9567 89.719 53.9468C89.3298 53.9435 89.2605 53.71 89.2638 53.3777C89.277 52.0816 89.2704 50.7855 89.2737 49.4926Z" fill="#5CB772"/>
<path d="M89.2572 33.9042C89.2572 32.8581 89.277 31.812 89.2473 30.7659C89.2342 30.233 89.3628 29.9961 89.9631 30.0093C90.9922 30.029 92.0247 30.0027 93.0142 30.3218C94.8646 30.9205 95.8014 32.6607 95.399 34.6839C95.0065 36.6511 94.0433 37.2958 92.0576 37.661C91.3188 37.7959 90.5403 37.7268 89.7817 37.7663C89.376 37.7893 89.2473 37.6182 89.2539 37.2235C89.2737 36.1181 89.2605 35.0095 89.2605 33.9009C89.2605 33.9042 89.2605 33.9042 89.2572 33.9042Z" fill="#5CB772"/>
<path d="M36.8281 32.6835C37.1678 34.0453 37.4844 35.2887 37.7945 36.5321C38.5103 39.4169 39.2062 42.3049 39.9484 45.1832C40.1034 45.7851 39.9154 45.9693 39.3547 46.0746C37.5306 46.4167 35.7231 46.5055 33.9155 45.9792C33.5065 45.8608 33.3251 45.7193 33.4471 45.2555C34.5224 41.1734 35.5812 37.0847 36.6466 32.996C36.6631 32.9302 36.7192 32.8677 36.8281 32.6835Z" fill="#F6BF1C"/>
<path d="M93.4991 123.001C145.137 123.001 186.997 120.571 186.997 117.573C186.997 114.575 145.137 112.145 93.4991 112.145C41.8613 112.145 0.000701904 114.575 0.000701904 117.573C0.000701904 120.571 41.8613 123.001 93.4991 123.001Z" fill="#88BECC"/>
<g clip-path="url(#clip0_140_213)">
<path d="M64.918 18.4063C65.5777 18.1094 65.9075 17.4167 66.3694 16.9219C68.4145 14.6459 70.7236 12.6337 73.2965 10.9184C76.5292 8.74134 80.0587 7.19099 83.8192 6.23439C87.3487 5.34377 90.9113 5.07988 94.5398 5.31078C94.9356 5.34377 95.3644 5.34377 95.7603 5.37675C98.4651 5.44273 101.005 6.16842 103.545 7.05905C106.085 7.94968 108.46 9.17016 110.703 10.6545C112.122 11.6111 113.54 12.5677 114.793 13.7223C116.179 14.9757 117.465 16.3282 118.686 17.7466C121.16 20.7153 123.106 23.981 124.59 27.5435C125.547 29.8855 126.24 32.2935 126.767 34.7345C127.493 38.0661 127.592 41.4306 127.427 44.7952C127.229 48.5557 126.471 52.2171 125.151 55.7466C124.261 58.1217 123.172 60.4307 121.82 62.6078C120.335 64.9828 118.653 67.1928 116.74 69.172C115.156 70.8213 113.408 72.2727 111.495 73.5592C109.384 74.9776 107.207 76.2311 104.832 77.1877C102.325 78.1772 99.7516 78.9359 97.0467 79.3318C96.6839 79.3977 96.354 79.1998 96.0241 79.3648C93.0884 79.4967 90.1856 79.5956 87.2827 79.1338C83.3244 78.5401 79.5639 77.3196 76.0344 75.4064C72.4059 73.4602 69.2722 70.9203 66.5013 67.8856C66.1055 67.4238 65.8086 66.863 65.2148 66.5661C64.2912 65.5765 63.5325 64.422 62.8068 63.3005C62.6089 63.0036 62.345 62.7067 62.1801 62.3769C60.7946 60.1668 59.7061 57.8248 58.8155 55.3838C57.9578 53.0748 57.3641 50.6668 57.0672 48.2258C56.7703 46.0157 56.5394 43.7727 56.6384 41.5296C56.6713 40.4081 56.7043 39.3195 56.7703 38.198C56.8033 37.5713 56.9682 36.9775 57.0672 36.3838C57.43 33.9758 57.9578 31.6008 58.7825 29.3247C59.7391 26.7518 60.8606 24.2448 62.411 21.9028C63.1367 20.7813 63.8294 19.6598 64.687 18.6042C64.72 18.5712 64.786 18.4393 64.918 18.4063Z" fill="#5CB772"/>
<path d="M158.303 83.7189C155.037 82.6304 151.771 81.5418 148.473 80.4533C144.811 79.2328 141.183 78.0453 137.521 76.8248C133.167 75.4064 128.813 73.988 124.458 72.5366C123.205 72.1078 121.952 71.679 120.665 71.2172C120.566 70.9533 120.797 70.8543 120.929 70.7224C123.634 68.3803 125.877 65.6425 127.757 62.6078C129.538 59.771 130.891 56.7362 131.814 53.5366C132.276 51.9532 132.738 50.3699 132.936 48.7536C132.969 48.5557 132.87 48.1928 133.266 48.2588C133.629 49.5782 134.058 50.8647 134.684 52.0522C136.762 56.0765 140.061 58.6494 144.382 59.9359C147.219 60.7605 150.089 60.7605 153.025 60.5956C155.202 60.4637 157.28 59.9359 159.325 59.2432C160.15 58.9793 160.15 58.9793 159.985 58.0887C159.655 56.0765 159.028 54.1633 158.27 52.2831C158.006 51.6234 157.874 51.5574 157.181 51.7883C155.73 52.2501 154.245 52.6459 152.728 52.8109C150.914 52.9758 149.099 52.8768 147.351 52.2501C144.778 51.3265 143.228 49.4463 142.502 46.8734C141.545 43.5088 141.545 40.1112 142.403 36.7466C142.733 35.4601 143.261 34.2726 144.085 33.1841C145.471 31.4358 147.285 30.5782 149.429 30.2813C151.771 29.9515 154.014 30.3803 156.224 31.073C156.521 31.1719 156.818 31.2709 157.115 31.3699C157.412 31.4688 157.61 31.3699 157.709 31.106C158.632 29.0278 159.358 26.8837 159.589 24.6077C159.622 24.2778 159.49 24.1129 159.193 24.0139C157.28 23.3212 155.334 22.7605 153.256 22.5625C151.837 22.4306 150.419 22.3976 149 22.4636C144.547 22.5955 140.655 24.1459 137.521 27.3126C135.575 29.2587 134.321 31.6337 133.497 34.2397C133.398 34.6025 133.332 34.9983 133.035 35.2952C132.672 35.0973 132.738 34.7015 132.639 34.3716C132.243 32.7883 131.88 31.1719 131.32 29.6216C129.736 25.2344 127.559 21.1771 124.458 17.6476C123.37 16.3941 122.248 15.1736 120.995 14.0521C120.896 13.9532 120.698 13.8872 120.797 13.6563C121.589 12.1719 122.215 10.6216 122.842 9.03822C124.195 5.47571 126.504 3.00174 130.297 2.04515C132.507 1.48438 134.618 1.9132 136.762 2.67188C139.698 3.69445 142.7 4.61807 145.669 5.57467C148.176 6.39932 150.683 7.25696 153.19 8.1146C158.929 10.0278 164.669 11.941 170.442 13.8212C172.718 14.5799 174.994 15.3056 177.27 16.0643C177.369 16.0973 177.435 16.1632 177.534 16.1962C178.853 16.8559 179.909 17.8785 180.733 19.066C181.723 20.5174 182.416 22.1007 182.548 23.915C182.68 25.6632 182.317 27.3126 181.855 28.9619C181.426 30.5782 181.03 32.1945 180.634 33.8108C180.37 34.8994 180.107 35.9549 179.81 37.0435C179.381 38.7258 179.018 40.4411 178.556 42.1234C178.292 43.08 178.094 44.0695 177.83 45.0591C177.6 45.9827 177.369 46.8734 177.138 47.797C176.742 49.4463 176.346 51.0956 175.884 52.7119C175.686 53.4046 175.554 54.0973 175.39 54.823C174.862 57.198 174.235 59.5401 173.641 61.8821C173.047 64.2241 172.487 66.5991 171.86 68.9411C171.464 70.4915 171.035 72.0418 170.705 73.6252C170.046 76.8248 168.759 79.6616 166.186 81.7727C164.768 82.9273 163.119 83.62 161.271 83.9168C160.315 84.1148 159.325 83.9498 158.303 83.7189Z" fill="#E69596"/>
<path d="M64.9179 18.4062C64.8849 18.901 64.4891 19.1978 64.2252 19.5277C63.4005 20.5833 62.8068 21.7378 62.0811 22.8263C61.2894 24.0138 60.6956 25.2673 60.1019 26.5538C59.3102 28.368 58.6175 30.2152 58.1227 32.1284C57.6939 33.8437 57.397 35.592 57.1331 37.3732C56.7373 40.0781 56.7702 42.75 56.9352 45.4548C57.1331 48.2916 57.5949 51.1285 58.4525 53.8333C59.0133 55.5486 59.6071 57.2969 60.4647 58.9132C61.0915 60.1007 61.7182 61.2882 62.3449 62.4427C62.0151 63.2674 61.3883 63.9271 60.9265 64.6858C60.2008 65.8733 59.4421 67.0608 58.6835 68.2153C57.6939 69.7327 56.7702 71.283 55.7477 72.8004C54.3952 74.7795 53.3397 76.9566 51.7893 78.7709C49.6122 81.3108 46.8083 82.3004 43.5097 81.9705C42.9489 81.9046 42.3882 81.7726 41.8274 81.5747C40.31 80.783 38.7597 79.9914 37.2423 79.1997C35.1971 78.1112 33.152 76.9896 31.1068 75.8681C28.336 74.3837 25.5651 72.8993 22.7942 71.415C18.0772 68.875 13.3271 66.3351 8.61007 63.7952C6.99374 62.9045 5.27845 62.1458 3.79406 61.0903C2.21071 59.9688 1.15515 58.4184 0.495417 56.6042C-0.428202 53.9653 -0.0323652 51.4583 1.12216 48.9514C2.50759 45.8837 3.76107 42.75 5.11352 39.6493C6.99374 35.2951 8.87397 30.9409 10.7542 26.5538C11.9747 23.7169 13.1622 20.8801 14.3827 18.0433C15.9001 14.4808 17.4834 10.9183 19.0008 7.32281C19.7265 5.60753 20.6501 4.05718 21.9696 2.77072C24.8064 0.0328666 29.0617 -0.989705 32.8221 1.05544C35.7909 2.70475 38.8256 4.32107 41.8274 5.93739C45.258 7.78462 48.7216 9.59886 52.1521 11.4461C55.1869 13.0624 58.1887 14.7117 61.2234 16.361C62.4439 17.0537 63.7304 17.6145 64.9179 18.4062Z" fill="#F7C01C"/>
<path d="M120.896 13.6893C123.238 15.7014 125.25 18.0105 127.031 20.5504C128.714 22.9584 130 25.5313 131.089 28.2692C131.979 30.5452 132.573 32.9202 133.134 35.2622C133.332 35.4931 133.332 35.79 133.398 36.0869C133.827 38.9237 134.057 41.7605 133.794 44.6303C133.695 45.6859 133.662 46.7084 133.53 47.764C133.497 47.9949 133.497 48.2258 133.299 48.3578C132.969 50.6338 132.375 52.8109 131.649 54.988C130.924 57.264 129.901 59.4081 128.747 61.4863C127.757 63.3005 126.537 64.9498 125.283 66.5661C123.931 68.2814 122.347 69.8318 120.731 71.3161C119.774 72.0418 118.818 72.8005 117.828 73.4932C111.528 77.8474 104.502 79.8925 96.8488 79.5957C96.5519 79.5957 96.288 79.5297 95.9912 79.4967C96.7828 79.1998 97.6075 79.1998 98.4322 79.0349C100.246 78.6721 101.995 78.1443 103.743 77.5505C105.359 76.9568 106.943 76.2971 108.427 75.4064C109.417 74.8127 110.373 74.1859 111.33 73.5592C113.177 72.3717 114.826 70.9533 116.344 69.4359C118.356 67.4238 120.104 65.1807 121.622 62.7397C122.974 60.5626 124.063 58.2866 124.953 55.9116C125.91 53.3717 126.537 50.6998 126.932 47.9949C127.295 45.455 127.361 42.882 127.262 40.3091C127.196 38.7918 127.097 37.2744 126.735 35.757C126.405 34.2067 126.108 32.6563 125.646 31.172C124.953 28.8629 124.063 26.6199 122.908 24.4758C121.918 22.6285 120.83 20.8473 119.543 19.198C118.29 17.6146 117.004 16.0973 115.519 14.7448C114.76 14.0521 113.969 13.3264 113.177 12.6997C111.825 11.6441 110.406 10.6875 108.922 9.8299C107.701 9.1042 106.448 8.44448 105.128 7.9167C103.347 7.22399 101.566 6.56426 99.6856 6.20142C98.4322 5.93753 97.1787 5.64065 95.8922 5.57468C95.8592 5.57468 95.7932 5.50871 95.7603 5.47572C97.2776 5.2778 98.795 5.31079 100.312 5.37676C104.403 5.57468 108.295 6.53128 112.056 8.18059C115.156 9.53302 117.993 11.3802 120.566 13.5243C120.665 13.5243 120.797 13.5903 120.896 13.6893Z" fill="#49916A"/>
<path d="M158.303 83.7189C158.83 83.488 159.292 83.8839 159.853 83.8839C161.469 83.8179 162.987 83.488 164.438 82.7623C166.054 81.9707 167.275 80.7172 168.33 79.2988C169.188 78.1443 169.782 76.8248 170.145 75.4394C170.639 73.5592 171.101 71.679 171.563 69.7988C171.893 68.5123 172.223 67.2258 172.553 65.9394C173.08 63.8283 173.575 61.6842 174.103 59.573C174.565 57.6598 175.027 55.7466 175.521 53.8334C175.983 52.0522 176.445 50.2709 176.874 48.4897C177.138 47.4671 177.369 46.4445 177.6 45.389C177.798 44.4654 178.094 43.5418 178.292 42.6181C178.523 41.5956 178.82 40.573 179.084 39.5504C179.348 38.4289 179.612 37.2744 179.942 36.1858C180.304 34.9983 180.568 33.7449 180.832 32.5244C181.195 30.9081 181.624 29.3247 182.053 27.7084C182.416 26.257 182.614 24.7396 182.317 23.2882C182.02 21.7049 181.393 20.1875 180.337 18.9011C179.744 18.1754 179.084 17.5487 178.358 16.9549C178.061 16.724 177.765 16.5261 177.402 16.4271C177.336 16.3941 177.204 16.3941 177.369 16.2952C177.435 16.2622 177.501 16.2622 177.567 16.2622C179.381 16.8559 181.294 17.2848 182.91 18.4723C186.242 20.9132 187.693 25.0035 186.704 29.0938C185.153 35.5261 183.669 41.9584 182.152 48.4237C180.898 53.6685 179.678 58.9463 178.424 64.1911C177.402 68.4793 176.445 72.8005 175.357 77.0887C174.433 80.7172 172.388 83.488 168.858 84.9724C166.978 85.7641 165.032 85.929 163.053 85.3353C161.469 84.8075 159.886 84.2467 158.303 83.7189Z" fill="#C67381"/>
<path d="M41.8275 81.6078C42.3553 81.5418 42.8501 81.7398 43.3779 81.8057C46.1157 82.2016 48.5238 81.4429 50.6349 79.7936C51.6905 78.9689 52.4491 77.7814 53.1748 76.6599C54.1314 75.1425 55.088 73.6252 56.0447 72.0748C56.7374 70.9863 57.3971 69.8977 58.0898 68.8092C58.9145 67.4897 59.7721 66.2033 60.6298 64.8838C61.0586 64.2241 61.4874 63.5314 61.9162 62.8717C62.0152 62.7067 62.0812 62.4758 62.3451 62.4428C63.2357 63.6963 64.0274 65.0487 65.0499 66.2363C65.1489 66.3352 65.1489 66.5001 65.2149 66.6321C62.9388 70.1286 60.6628 73.6252 58.3207 77.0887C57.2981 78.5731 56.5065 80.2224 55.154 81.4759C53.5047 83.0262 51.5255 83.8509 49.2824 84.0158C47.0064 84.2137 45.0272 83.455 43.147 82.3335C42.6852 82.1026 42.2563 81.8717 41.8275 81.6078Z" fill="#E79532"/>
<path d="M80.2567 41.2327C80.2567 35.3282 80.2567 29.3907 80.2567 23.4862C80.2567 22.8594 80.4216 22.5955 81.0813 22.4966C85.6334 21.9028 90.1856 21.573 94.7377 22.2327C97.4426 22.6285 100.016 23.4862 101.995 25.5973C103.413 27.1476 104.106 28.9949 104.238 31.073C104.403 33.382 103.974 35.5261 102.621 37.4723C102.16 38.165 101.566 38.7258 100.939 39.2536C100.51 39.6164 100.642 39.7484 101.071 39.9463C102.786 40.7049 104.205 41.8265 105.194 43.4428C106.547 45.6529 106.778 48.0609 106.58 50.5678C106.415 52.547 105.821 54.3282 104.601 55.9116C103.38 57.5279 101.731 58.5505 99.8506 59.2102C96.8818 60.2987 93.7481 60.4967 90.6144 60.5626C87.3487 60.6286 84.1161 60.2328 80.8834 59.9359C80.3556 59.8699 80.2896 59.606 80.2896 59.1772C80.2566 53.2067 80.2567 47.2032 80.2567 41.2327Z" fill="white"/>
<path d="M133.266 48.3248C133.695 44.8942 133.827 41.4966 133.464 38.0661C133.365 37.1424 133.233 36.1858 133.101 35.2622C133.761 33.1181 134.585 31.04 135.872 29.1928C138.478 25.4983 142.04 23.3542 146.46 22.5955C149.825 22.0018 153.19 22.1997 156.488 22.9914C157.511 23.2223 158.533 23.6511 159.523 23.948C159.886 24.0469 159.853 24.3438 159.82 24.5747C159.721 25.7292 159.523 26.8508 159.16 27.9393C158.797 28.9949 158.434 30.0834 157.973 31.106C157.742 31.6008 157.511 31.7327 157.016 31.5348C154.971 30.7431 152.86 30.3143 150.683 30.3803C148.044 30.4462 145.735 31.3369 144.085 33.547C143.096 34.8994 142.568 36.4827 142.304 38.099C141.842 40.9359 141.908 43.7727 142.634 46.6095C143.525 50.0071 145.966 52.1512 149.429 52.613C151.936 52.9428 154.344 52.58 156.719 51.8213C158.434 51.2605 158.039 51.3265 158.632 52.7119C159.424 54.6251 159.952 56.6043 160.315 58.6164C160.381 58.9793 160.249 59.1442 159.886 59.2762C157.676 60.0349 155.433 60.6286 153.058 60.7935C150.056 60.9915 147.087 60.9915 144.184 60.1008C138.841 58.4515 135.278 54.922 133.497 49.6112C133.431 49.1824 133.299 48.7866 133.266 48.3248Z" fill="white"/>
<path d="M48.0949 59.4411C46.9734 59.5071 45.7199 59.3092 44.4664 59.1772C44.0376 59.1442 43.8067 58.9133 43.7077 58.5175C43.1799 56.5053 42.6192 54.5262 42.0914 52.514C41.9594 52.0522 41.8275 51.8543 41.2667 52.0192C38.8917 52.6789 36.4837 52.8769 34.0427 52.481C33.35 52.3821 32.6573 52.2831 31.9975 52.0852C31.6347 51.9532 31.4038 51.9862 31.2718 52.514C30.81 54.4602 30.2493 56.4064 29.7215 58.3526C29.5895 58.9133 29.3256 59.1772 28.6989 59.2432C26.1589 59.606 23.619 59.5071 21.079 59.0783C20.6172 59.0123 20.5513 58.8144 20.6832 58.4185C21.5079 55.8126 22.3325 53.2067 23.1572 50.6008C24.3117 46.8734 25.4662 43.1459 26.6537 39.4185C27.9732 35.2292 29.2927 31.073 30.6121 26.8837C31.1069 25.3334 31.6017 23.783 32.0635 22.2327C32.1625 21.9028 32.3274 21.7709 32.6573 21.7379C35.5931 21.3421 38.5288 21.3751 41.4646 21.7379C41.7615 21.7709 41.9924 21.8369 42.0914 22.1997C43.1469 25.7292 44.2355 29.2258 45.324 32.7553C46.5445 36.7136 47.765 40.672 48.9855 44.6633C50.404 49.2814 51.8224 53.8994 53.2738 58.4845C53.4057 58.9133 53.3727 59.1112 52.845 59.1772C51.2946 59.2762 49.8102 59.4411 48.0949 59.4411Z" fill="white"/>
<path d="M89.295 48.6216C89.295 47.3352 89.295 46.0157 89.295 44.7293C89.295 44.4654 89.2949 44.2345 89.6578 44.2345C91.2082 44.2675 92.7255 44.1685 94.2429 44.6303C97.2117 45.4879 98.3992 49.0834 96.387 51.4584C95.6283 52.3821 94.4738 52.7779 93.2863 52.9758C92.0988 53.2067 90.9113 53.1077 89.7238 53.1077C89.3279 53.1077 89.262 52.8768 89.262 52.547C89.2949 51.2275 89.262 49.9081 89.295 48.6216C89.262 48.6216 89.262 48.6216 89.295 48.6216Z" fill="#5CB772"/>
<path d="M89.262 32.9862C89.262 31.9306 89.2949 30.8751 89.262 29.8525C89.262 29.3247 89.3609 29.0938 89.9877 29.0938C91.0102 29.1268 92.0328 29.0938 93.0224 29.4237C94.8697 30.0174 95.8263 31.7657 95.3974 33.8108C95.0016 35.79 94.045 36.4167 92.0658 36.7796C91.3401 36.9115 90.5484 36.8456 89.7897 36.8786C89.3939 36.9115 89.262 36.7466 89.262 36.3178C89.2949 35.1963 89.262 34.1077 89.262 32.9862Z" fill="#5CB772"/>
<path d="M36.8136 31.7657C37.1434 33.1181 37.4733 34.3716 37.7702 35.6251C38.4959 38.5279 39.1886 41.4307 39.9143 44.3005C40.0792 44.8942 39.8813 45.0921 39.3205 45.1911C37.5063 45.5209 35.692 45.6199 33.8778 45.0921C33.4819 44.9602 33.284 44.8282 33.416 44.3664C34.5045 40.2761 35.5601 36.1858 36.6156 32.0626C36.6816 31.9966 36.7146 31.9306 36.8136 31.7657Z" fill="#F6BF1C"/>
<path d="M93.5172 122.346C145.165 122.346 187.034 119.909 187.034 116.903C187.034 113.897 145.165 111.46 93.5172 111.46C41.8695 111.46 0.000701904 113.897 0.000701904 116.903C0.000701904 119.909 41.8695 122.346 93.5172 122.346Z" fill="#88BECC"/>
<path d="M44.2685 100.707V101.927H37.0775V92.0315H44.0706V93.252H38.4959V96.2867H43.4768V97.5072H38.4959V100.707H44.2685Z" fill="black"/>
<path d="M53.6367 93.8787V101.927H52.5151L47.831 96.2537V101.927H46.4456V93.8787H47.5672L52.2182 99.5853V93.8787H53.6367Z" fill="black"/>
<path d="M61.8503 97.87H63.1697V101.004C62.7739 101.334 62.3121 101.597 61.7513 101.762C61.1905 101.927 60.6298 102.026 60.036 102.026C59.1784 102.026 58.4197 101.861 57.76 101.498C57.0672 101.136 56.5395 100.641 56.1766 100.014C55.7808 99.3874 55.6158 98.6947 55.6158 97.903C55.6158 97.1113 55.8138 96.4186 56.1766 95.7919C56.5395 95.1651 57.0672 94.6704 57.76 94.3075C58.4197 93.9447 59.1784 93.7797 60.003 93.7797C61.4214 93.7797 62.51 94.2086 63.2357 95.0332L62.3451 95.9238C61.7183 95.2971 60.9596 94.9672 60.003 94.9672C59.4423 94.9672 58.9145 95.0992 58.4527 95.3301C57.9909 95.594 57.628 95.9238 57.3641 96.3856C57.1002 96.8474 56.9683 97.3422 56.9683 97.903C56.9683 98.4638 57.1002 98.9586 57.3641 99.4204C57.628 99.8822 57.9909 100.212 58.4527 100.476C58.9145 100.74 59.4423 100.872 60.036 100.872C60.7287 100.872 61.2895 100.707 61.7843 100.41V97.87H61.8503Z" fill="black"/>
<path d="M65.6437 93.8787H67.0291V100.773H71.3503V101.927H65.6437V93.8787Z" fill="black"/>
<path d="M72.8347 93.8787H74.2201V101.927H72.8347V93.8787Z" fill="black"/>
<path d="M77.4858 101.795C76.8921 101.63 76.4303 101.4 76.1004 101.103L76.6282 100.014C76.9581 100.278 77.3539 100.476 77.8487 100.641C78.3435 100.806 78.8383 100.872 79.3661 100.872C79.9928 100.872 80.4546 100.773 80.7515 100.575C81.0484 100.377 81.2133 100.113 81.2133 99.7502C81.2133 99.4863 81.1143 99.2884 80.9494 99.1235C80.7845 98.9586 80.5536 98.8266 80.2897 98.7606C80.0258 98.6617 79.6629 98.5957 79.2011 98.4968C78.5744 98.3648 78.0796 98.2329 77.7167 98.1009C77.3209 97.969 76.991 97.7381 76.7271 97.4412C76.4633 97.1443 76.3313 96.7155 76.3313 96.1877C76.3313 95.462 76.6282 94.9013 77.189 94.4394C77.7827 94.0106 78.5744 93.7797 79.564 93.7797C80.0588 93.7797 80.5536 93.8457 81.0484 93.9447C81.5102 94.0766 81.939 94.2415 82.2689 94.4724L81.7741 95.594C81.1473 95.1651 80.4216 94.9672 79.531 94.9672C78.9043 94.9672 78.4424 95.0662 78.1456 95.2971C77.8487 95.495 77.6838 95.7919 77.6838 96.1217C77.6838 96.3856 77.7827 96.5835 77.9476 96.7485C78.1126 96.9134 78.3435 97.0454 78.6074 97.1113C78.8713 97.1773 79.2341 97.2763 79.6959 97.3752C80.3227 97.5072 80.8175 97.6721 81.1803 97.804C81.5432 97.936 81.873 98.1669 82.1369 98.4638C82.4008 98.7606 82.5328 99.1565 82.5328 99.6843C82.5328 100.41 82.2359 101.004 81.6751 101.433C81.0814 101.861 80.2897 102.092 79.2671 102.092C78.7063 102.059 78.0796 101.993 77.4858 101.795Z" fill="black"/>
<path d="M84.4789 93.8787H85.8644V97.3093H90.2846V93.9117H91.67V101.96H90.2846V98.4308H85.8644V101.96H84.4789V93.8787Z" fill="black"/>
<path d="M99.0589 101.729C98.3662 101.498 97.8054 101.202 97.4096 100.839L97.9374 99.7172C98.3002 100.047 98.795 100.344 99.3888 100.542C99.9825 100.74 100.576 100.872 101.203 100.872C102.028 100.872 102.654 100.74 103.05 100.443C103.446 100.179 103.644 99.7832 103.644 99.3214C103.644 98.9915 103.545 98.6947 103.314 98.4967C103.083 98.2988 102.819 98.1339 102.49 98.0019C102.16 97.903 101.698 97.771 101.104 97.6061C100.345 97.4412 99.7516 97.2433 99.2898 97.0783C98.828 96.9134 98.4322 96.6165 98.1023 96.2537C97.7725 95.8908 97.6075 95.3631 97.6075 94.7363C97.6075 94.2085 97.7395 93.7137 98.0364 93.3179C98.3002 92.8891 98.7291 92.5592 99.2898 92.2953C99.8506 92.0314 100.576 91.8995 101.401 91.8995C101.995 91.8995 102.555 91.9655 103.116 92.1304C103.677 92.2953 104.172 92.4933 104.568 92.7901L104.106 93.9117C103.677 93.6478 103.248 93.4499 102.786 93.3179C102.325 93.186 101.863 93.12 101.401 93.12C100.609 93.12 99.9825 93.2519 99.5867 93.5488C99.1909 93.8457 98.993 94.2085 98.993 94.6703C98.993 95.0002 99.0919 95.2971 99.3228 95.495C99.5537 95.6929 99.8176 95.8578 100.18 95.9898C100.51 96.1217 100.972 96.2207 101.533 96.3526C102.292 96.5176 102.885 96.7155 103.347 96.8804C103.809 97.0454 104.205 97.3422 104.502 97.7051C104.832 98.0679 104.996 98.5627 104.996 99.1895C104.996 99.7172 104.865 100.179 104.568 100.608C104.271 101.037 103.842 101.367 103.281 101.63C102.72 101.894 101.995 101.993 101.17 101.993C100.477 102.059 99.7516 101.96 99.0589 101.729Z" fill="black"/>
<path d="M108.427 101.531C107.767 101.169 107.24 100.674 106.844 100.047C106.481 99.4204 106.283 98.7277 106.283 97.936C106.283 97.1443 106.481 96.4516 106.844 95.8249C107.207 95.1981 107.734 94.7033 108.427 94.3405C109.087 93.9776 109.845 93.8127 110.67 93.8127C112.056 93.8127 113.111 94.2415 113.837 95.0662L112.946 95.9568C112.352 95.3301 111.594 95.0002 110.703 95.0002C110.142 95.0002 109.615 95.1322 109.153 95.3631C108.691 95.627 108.328 95.9568 108.064 96.4186C107.8 96.8804 107.668 97.3752 107.668 97.936C107.668 98.4968 107.8 98.9915 108.064 99.4534C108.328 99.9152 108.691 100.245 109.153 100.509C109.615 100.773 110.142 100.905 110.703 100.905C111.594 100.905 112.352 100.575 112.946 99.9152L113.837 100.806C113.111 101.663 112.056 102.092 110.67 102.092C109.813 102.059 109.087 101.894 108.427 101.531Z" fill="black"/>
<path d="M115.684 93.8787H117.07V97.3093H121.49V93.9117H122.875V101.96H121.49V98.4308H117.07V101.96H115.684V93.8787Z" fill="black"/>
<path d="M126.965 101.531C126.306 101.169 125.778 100.674 125.382 100.047C125.019 99.4204 124.821 98.7277 124.821 97.936C124.821 97.1443 125.019 96.4516 125.382 95.8249C125.745 95.1981 126.273 94.7033 126.965 94.3405C127.658 93.9776 128.384 93.8127 129.209 93.8127C130.033 93.8127 130.792 93.9776 131.452 94.3405C132.111 94.7033 132.639 95.1981 133.035 95.8249C133.398 96.4516 133.596 97.1443 133.596 97.936C133.596 98.7277 133.398 99.4204 133.035 100.047C132.672 100.674 132.144 101.169 131.452 101.531C130.792 101.894 130.033 102.059 129.209 102.059C128.384 102.059 127.658 101.894 126.965 101.531ZM130.759 100.476C131.221 100.212 131.584 99.8822 131.814 99.4204C132.078 98.9915 132.21 98.4638 132.21 97.903C132.21 97.3422 132.078 96.8145 131.814 96.3856C131.551 95.9568 131.188 95.594 130.759 95.3301C130.33 95.0662 129.802 94.9342 129.242 94.9342C128.681 94.9342 128.153 95.0662 127.724 95.3301C127.295 95.594 126.899 95.9238 126.669 96.3856C126.405 96.8145 126.273 97.3422 126.273 97.903C126.273 98.4638 126.405 98.9915 126.669 99.4204C126.932 99.8492 127.295 100.212 127.724 100.476C128.186 100.74 128.681 100.872 129.242 100.872C129.769 100.872 130.297 100.74 130.759 100.476Z" fill="black"/>
<path d="M136.993 101.531C136.334 101.169 135.806 100.674 135.41 100.047C135.047 99.4204 134.849 98.7277 134.849 97.936C134.849 97.1443 135.047 96.4516 135.41 95.8249C135.773 95.1981 136.301 94.7033 136.993 94.3405C137.686 93.9776 138.412 93.8127 139.236 93.8127C140.061 93.8127 140.82 93.9776 141.479 94.3405C142.139 94.7033 142.667 95.1981 143.063 95.8249C143.426 96.4516 143.624 97.1443 143.624 97.936C143.624 98.7277 143.426 99.4204 143.063 100.047C142.7 100.674 142.172 101.169 141.479 101.531C140.82 101.894 140.061 102.059 139.236 102.059C138.412 102.059 137.653 101.894 136.993 101.531ZM140.754 100.476C141.216 100.212 141.578 99.8822 141.809 99.4204C142.073 98.9915 142.205 98.4638 142.205 97.903C142.205 97.3422 142.073 96.8145 141.809 96.3856C141.545 95.9568 141.183 95.594 140.754 95.3301C140.325 95.0662 139.797 94.9342 139.236 94.9342C138.676 94.9342 138.148 95.0662 137.719 95.3301C137.29 95.594 136.894 95.9238 136.663 96.3856C136.4 96.8145 136.268 97.3422 136.268 97.903C136.268 98.4638 136.4 98.9915 136.663 99.4204C136.927 99.8492 137.29 100.212 137.719 100.476C138.181 100.74 138.676 100.872 139.236 100.872C139.797 100.872 140.292 100.74 140.754 100.476Z" fill="black"/>
<path d="M145.603 93.8787H146.988V100.773H151.309V101.927H145.603V93.8787Z" fill="black"/>
</g>
<defs>
<clipPath id="clip0_140_213">
<rect width="187" height="122.346" fill="white" transform="translate(0.000701904)"/>
</clipPath>
</defs>
</svg>
