<svg width="187" height="122" viewBox="0 0 187 122" fill="none" xmlns="http://www.w3.org/2000/svg">
<path d="M64.9106 18.3747C65.5834 18.0655 65.8869 17.3945 66.3487 16.8846C68.4069 14.5985 70.706 12.6018 73.2656 10.8946C76.5047 8.73353 80.0142 7.18094 83.7877 6.22044C87.3071 5.32573 90.8794 5.06258 94.4945 5.29613C94.9035 5.32244 95.3158 5.32902 95.7248 5.34876C98.423 5.41454 100.986 6.13492 103.506 7.02305C106.039 7.91776 108.411 9.14141 110.657 10.6118C112.089 11.5492 113.484 12.5262 114.754 13.6742C116.146 14.9274 117.442 16.2695 118.649 17.7004C121.14 20.6477 123.063 23.9305 124.55 27.4764C125.523 29.7954 126.193 32.2065 126.724 34.6604C127.443 37.9761 127.548 41.3411 127.384 44.7062C127.202 48.4561 126.44 52.1204 125.114 55.6434C124.217 58.0249 123.125 60.3176 121.776 62.5017C120.308 64.8766 118.619 67.0707 116.68 69.0607C115.087 70.6923 113.339 72.1528 111.432 73.4389C109.321 74.8599 107.131 76.1099 104.773 77.0474C102.262 78.044 99.6764 78.794 96.9914 79.1822C96.6451 79.2315 96.2988 79.0407 95.9689 79.2315C93.0498 79.3532 90.1339 79.4552 87.2247 79.0111C83.2632 78.4092 79.5195 77.1921 75.9901 75.2908C72.3717 73.3435 69.2151 70.8238 66.4575 67.791C66.0485 67.3437 65.7583 66.7779 65.1843 66.4884C64.2608 65.4918 63.5186 64.3602 62.783 63.2254C62.5818 62.9162 62.3377 62.6366 62.1695 62.3044C60.8007 60.0972 59.6957 57.7617 58.8018 55.3243C57.9508 53.0053 57.3637 50.6205 57.0503 48.1765C56.7633 45.9594 56.5291 43.7259 56.6281 41.4892C56.6776 40.3806 56.6908 39.2754 56.7468 38.1702C56.7765 37.5616 56.9481 36.963 57.0437 36.3544C57.4197 33.9598 57.9211 31.5816 58.7655 29.3086C59.7221 26.733 60.8435 24.2265 62.3872 21.9239C63.1294 20.8154 63.8188 19.674 64.65 18.628C64.7225 18.5227 64.7819 18.4142 64.9106 18.3747Z" fill="#5CB772"/>
<path d="M158.3 83.5078C155.028 82.4256 151.756 81.3467 148.484 80.2645C144.839 79.0606 141.194 77.8567 137.546 76.6626C133.195 75.2351 128.838 73.8239 124.491 72.393C123.224 71.9786 121.974 71.5213 120.714 71.0872C120.622 70.8273 120.833 70.722 120.981 70.5937C123.679 68.2451 125.926 65.5116 127.822 62.492C129.6 59.6631 130.962 56.6501 131.889 53.4396C132.344 51.864 132.816 50.295 133.017 48.6602C133.04 48.4792 132.938 48.1174 133.36 48.1799C133.72 49.4891 134.159 50.7621 134.789 51.9726C136.88 55.9922 140.152 58.5447 144.473 59.8243C147.303 60.6598 150.192 60.6467 153.105 60.4723C155.289 60.3407 157.37 59.8276 159.422 59.127C160.236 58.8507 160.236 58.8507 160.088 57.9823C159.745 55.9889 159.135 54.0745 158.369 52.2061C158.105 51.5614 157.967 51.4792 157.281 51.6995C155.826 52.1666 154.358 52.5647 152.831 52.7028C151.007 52.8673 149.206 52.7719 147.468 52.1436C144.902 51.216 143.332 49.3443 142.606 46.7852C141.656 43.4399 141.643 40.0486 142.494 36.6802C142.817 35.4073 143.338 34.2033 144.176 33.1442C145.548 31.4107 147.372 30.5423 149.51 30.2396C151.848 29.9074 154.098 30.3449 156.321 31.0291C156.615 31.1212 156.908 31.2264 157.202 31.3153C157.482 31.4008 157.683 31.3186 157.805 31.0488C158.742 28.9798 159.471 26.8516 159.692 24.572C159.722 24.2563 159.58 24.0753 159.286 23.9734C157.36 23.2958 155.411 22.7234 153.359 22.5425C151.941 22.4175 150.526 22.3846 149.107 22.4307C144.658 22.5754 140.775 24.1049 137.625 27.2726C135.696 29.2166 134.426 31.585 133.601 34.1935C133.486 34.5586 133.449 34.9632 133.123 35.2329C132.77 35.0224 132.816 34.631 132.737 34.3119C132.335 32.7198 131.965 31.1212 131.411 29.5752C129.834 25.1904 127.661 21.1511 124.56 17.6249C123.458 16.3749 122.337 15.1545 121.083 14.0559C120.975 13.9605 120.783 13.8816 120.879 13.6677C121.667 12.1809 122.31 10.6284 122.911 9.06261C124.266 5.52653 126.572 3.03976 130.349 2.10229C132.569 1.54967 134.683 1.98387 136.801 2.7174C139.746 3.73711 142.728 4.65155 145.69 5.62521C148.203 6.45413 150.704 7.30937 153.214 8.14159C158.96 10.0461 164.709 11.9441 170.455 13.8388C172.734 14.5888 175.013 15.3289 177.293 16.0756C177.388 16.1052 177.471 16.1644 177.563 16.2071C178.886 16.8782 179.925 17.8814 180.756 19.0854C181.762 20.536 182.422 22.1182 182.573 23.9174C182.719 25.6575 182.339 27.3022 181.891 28.9469C181.455 30.5521 181.069 32.1672 180.683 33.7856C180.426 34.8612 180.146 35.9303 179.862 37.0026C179.417 38.6868 179.057 40.3939 178.599 42.0781C178.335 43.0485 178.134 44.032 177.886 45.0057C177.655 45.9135 177.418 46.828 177.197 47.7424C176.804 49.3772 176.415 51.0154 175.947 52.6304C175.746 53.3212 175.604 54.0251 175.442 54.7225C174.901 57.081 174.291 59.423 173.701 61.765C173.11 64.1104 172.53 66.459 171.919 68.801C171.517 70.347 171.101 71.8963 170.775 73.4654C170.118 76.6429 168.819 79.4981 166.243 81.5901C164.824 82.7414 163.162 83.4453 161.315 83.7282C160.289 83.8795 159.303 83.7216 158.3 83.5078Z" fill="#E69596"/>
<path d="M64.9105 18.3747C64.8907 18.8714 64.4751 19.151 64.2146 19.4799C63.3932 20.5194 62.783 21.6838 62.0607 22.7759C61.2822 23.9535 60.6621 25.2166 60.0948 26.4995C59.2966 28.3053 58.5973 30.1474 58.1124 32.0717C57.677 33.7953 57.3735 35.5387 57.1163 37.2952C56.7204 39.9826 56.7369 42.6701 56.9085 45.3575C57.0899 48.1962 57.5583 51.0086 58.4291 53.7158C58.9832 55.4394 59.5769 57.1762 60.4543 58.788C61.0909 59.959 61.7011 61.1432 62.3245 62.3208C61.9848 63.1497 61.3779 63.8109 60.9095 64.5576C60.1673 65.7385 59.4351 66.9292 58.6599 68.0904C57.6572 69.5936 56.7435 71.1528 55.7243 72.6462C54.3851 74.6165 53.3296 76.7809 51.7694 78.5934C49.5958 81.1196 46.7987 82.1163 43.4936 81.7775C42.9164 81.7183 42.3655 81.5933 41.8279 81.3893C40.2974 80.5966 38.7603 79.817 37.243 79.0045C35.1947 77.9125 33.1628 76.7908 31.1177 75.6921C28.3503 74.202 25.5829 72.7218 22.8122 71.2383C18.0822 68.7055 13.3456 66.1891 8.62879 63.6333C7.00595 62.755 5.30724 62.005 3.79984 60.9261C2.21657 59.7913 1.14457 58.2749 0.507968 56.4361C-0.409006 53.7947 -0.0164883 51.3014 1.12808 48.8047C2.52993 45.7522 3.78335 42.6306 5.10933 39.5419C6.97956 35.19 8.86299 30.8414 10.7365 26.4929C11.9536 23.6673 13.1543 20.8384 14.3714 18.0129C15.9052 14.4505 17.4687 10.9045 18.9761 7.33225C19.6952 5.62835 20.6088 4.08234 21.948 2.78633C24.7748 0.0495655 29.0562 -0.966853 32.7901 1.08901C35.7752 2.73041 38.7834 4.33563 41.7883 5.94084C45.2319 7.7829 48.6854 9.59863 52.129 11.4407C55.1537 13.0591 58.1685 14.6939 61.1833 16.3287C62.4301 17.0129 63.7363 17.5754 64.9105 18.3747Z" fill="#F7C01C"/>
<path d="M120.889 13.661C123.241 15.661 125.249 17.9767 127.011 20.4996C128.683 22.891 129.989 25.4765 131.061 28.1935C131.959 30.4665 132.542 32.8184 133.113 35.1801C133.304 35.417 133.324 35.7097 133.37 35.9893C133.816 38.8083 134.013 41.6372 133.779 44.4924C133.693 45.5318 133.657 46.5746 133.515 47.6107C133.486 47.8278 133.496 48.0712 133.271 48.2127C132.955 50.4725 132.344 52.6566 131.635 54.8177C130.893 57.0775 129.88 59.2156 128.739 61.2945C127.75 63.0938 126.536 64.7418 125.266 66.3503C123.904 68.0739 122.337 69.6101 120.714 71.0837C119.744 71.8041 118.798 72.5574 117.805 73.2415C111.488 77.5868 104.492 79.6131 96.8232 79.3203C96.5363 79.3105 96.2526 79.2578 95.9689 79.2249C96.7573 78.9355 97.6017 78.9157 98.4164 78.7578C100.231 78.4059 101.992 77.8829 103.727 77.2645C105.346 76.6855 106.926 76.0046 108.407 75.1329C109.394 74.554 110.347 73.9126 111.313 73.3008C113.167 72.1264 114.8 70.7054 116.33 69.1759C118.342 67.1628 120.081 64.9194 121.595 62.4853C122.941 60.3176 124.039 58.0446 124.936 55.6796C125.899 53.1402 126.516 50.4988 126.912 47.7982C127.285 45.2489 127.341 42.6931 127.225 40.1405C127.156 38.6241 127.047 37.1011 126.711 35.588C126.371 34.0585 126.094 32.5059 125.632 31.0125C124.923 28.7132 124.045 26.4764 122.901 24.3449C121.908 22.4996 120.836 20.7102 119.543 19.0688C118.303 17.4964 117.016 15.9669 115.512 14.6182C114.737 13.9242 113.975 13.2169 113.157 12.5722C111.808 11.5098 110.373 10.569 108.889 9.70389C107.669 8.99339 106.422 8.31249 105.109 7.79934C103.341 7.11186 101.56 6.44412 99.6797 6.079C98.4131 5.83229 97.163 5.52638 95.87 5.46059C95.8205 5.4573 95.7776 5.38823 95.7314 5.34875C97.2487 5.15139 98.7726 5.18429 100.29 5.26323C104.373 5.47375 108.285 6.4178 112.032 8.0592C115.14 9.42101 117.953 11.24 120.556 13.4012C120.658 13.49 120.773 13.5755 120.889 13.661Z" fill="#49916A"/>
<path d="M158.3 83.5077C158.834 83.2873 159.303 83.6755 159.837 83.659C161.46 83.6064 162.974 83.2643 164.435 82.5505C166.065 81.7545 167.272 80.5045 168.327 79.0999C169.188 77.9519 169.769 76.6362 170.135 75.2448C170.63 73.3731 171.092 71.4949 171.57 69.6199C171.896 68.3404 172.243 67.0608 172.563 65.7779C173.084 63.6629 173.585 61.5445 174.106 59.4294C174.575 57.515 175.043 55.6006 175.538 53.6961C176 51.9198 176.448 50.1435 176.897 48.3673C177.154 47.3508 177.401 46.3147 177.632 45.2884C177.84 44.3674 178.124 43.4365 178.335 42.5089C178.569 41.4793 178.869 40.4695 179.12 39.4432C179.394 38.3182 179.631 37.1867 179.984 36.0748C180.36 34.8841 180.598 33.6374 180.865 32.4072C181.218 30.7921 181.663 29.2033 182.075 27.6047C182.455 26.1442 182.63 24.6443 182.356 23.1871C182.056 21.595 181.419 20.0918 180.363 18.7957C179.776 18.0754 179.103 17.4537 178.398 16.8583C178.114 16.6182 177.791 16.4438 177.428 16.3484C177.355 16.3287 177.237 16.3057 177.395 16.2267C177.448 16.2004 177.517 16.2103 177.576 16.2037C179.404 16.809 181.304 17.2333 182.907 18.401C186.241 20.8352 187.679 24.9041 186.697 28.9895C185.156 35.4038 183.655 41.8313 182.138 48.2521C180.898 53.4954 179.651 58.7387 178.408 63.9819C177.392 68.268 176.435 72.5705 175.343 76.8368C174.423 80.442 172.365 83.2149 168.842 84.705C166.968 85.4978 165.012 85.6491 163.05 85.0504C161.457 84.5669 159.883 84.0208 158.3 83.5077Z" fill="#C67381"/>
<path d="M41.8279 81.3992C42.3556 81.3433 42.8603 81.5341 43.3683 81.6097C46.0994 82.011 48.4974 81.2446 50.6117 79.5933C51.6771 78.7611 52.4193 77.6 53.1416 76.4553C54.1048 74.9389 55.0646 73.4192 56.0245 71.8995C56.7106 70.814 57.3835 69.7252 58.0761 68.6463C58.9139 67.3371 59.7682 66.0411 60.6126 64.7352C61.0447 64.0708 61.4604 63.3964 61.8991 62.7386C62.0079 62.5774 62.0772 62.357 62.3213 62.3241C63.225 63.5741 64.0101 64.9128 65.0161 66.0904C65.1019 66.1924 65.125 66.3503 65.1777 66.4819C62.8853 69.9555 60.6258 73.4521 58.2905 76.8993C57.2812 78.3861 56.4698 80.0177 55.124 81.2709C53.4616 82.8202 51.5023 83.6261 49.2527 83.8103C46.9933 83.9945 45.0076 83.2347 43.111 82.1262C42.6888 81.8762 42.2567 81.6393 41.8279 81.3992Z" fill="#E79532"/>
<path d="M80.2484 41.1175C80.2484 35.2196 80.2583 29.325 80.2352 23.4272C80.2319 22.789 80.4034 22.5358 81.0631 22.4502C85.6117 21.8614 90.1702 21.5424 94.7287 22.1937C97.4499 22.5818 100.013 23.4436 101.972 25.5521C103.407 27.0981 104.077 28.9369 104.215 31.0092C104.37 33.3085 103.948 35.4597 102.615 37.384C102.144 38.0682 101.557 38.6471 100.92 39.1636C100.475 39.5254 100.633 39.6603 101.039 39.8412C102.744 40.6142 104.162 41.7293 105.155 43.3312C106.514 45.5285 106.755 47.9495 106.537 50.4494C106.369 52.4066 105.765 54.2158 104.545 55.7914C103.311 57.3867 101.682 58.4196 99.8083 59.0972C96.8232 60.1761 93.7095 60.3899 90.5759 60.4426C87.317 60.4985 84.0845 60.1169 80.8487 59.8176C80.3111 59.7683 80.2451 59.4985 80.2484 59.0479C80.2517 53.0744 80.2484 47.0976 80.2484 41.1175Z" fill="white"/>
<path d="M133.271 48.2127C133.707 44.8049 133.835 41.3938 133.463 37.9728C133.36 37.0386 133.232 36.111 133.113 35.1801C133.783 33.042 134.584 30.9664 135.897 29.1178C138.506 25.4436 142.078 23.289 146.485 22.5226C149.843 21.9371 153.204 22.1312 156.516 22.9042C157.551 23.1443 158.547 23.5588 159.567 23.8713C159.936 23.9831 159.896 24.2528 159.873 24.5127C159.765 25.6541 159.583 26.7922 159.214 27.8777C158.851 28.9435 158.475 30.0059 158.026 31.0454C157.812 31.5421 157.571 31.6539 157.053 31.4566C155.018 30.6803 152.907 30.2329 150.727 30.2987C148.078 30.3777 145.772 31.2428 144.143 33.4664C143.15 34.8216 142.619 36.3808 142.362 38.0024C141.913 40.8379 141.956 43.6733 142.695 46.4759C143.589 49.8639 146.026 52.0119 149.493 52.4691C151.993 52.7981 154.405 52.4494 156.783 51.683C158.488 51.1336 158.115 51.1764 158.696 52.5678C159.487 54.4625 160.005 56.4394 160.362 58.4624C160.428 58.8406 160.299 59.0051 159.936 59.1301C157.719 59.9031 155.473 60.4919 153.108 60.6399C150.113 60.8307 147.138 60.8307 144.245 59.936C138.892 58.2815 135.343 54.7618 133.562 49.4659C133.426 49.058 133.275 48.6534 133.271 48.2127Z" fill="white"/>
<path d="M48.0916 59.2781C46.9867 59.3373 45.7233 59.1433 44.4534 59.0051C44.0312 58.9591 43.8069 58.7551 43.6948 58.3374C43.1637 56.3374 42.603 54.3441 42.0752 52.3441C41.9499 51.8672 41.8245 51.6895 41.2407 51.8507C38.879 52.4987 36.4711 52.6928 34.0336 52.3014C33.3442 52.1895 32.6482 52.1106 31.9786 51.8968C31.5993 51.7751 31.3783 51.8112 31.253 52.3211C30.7747 54.2717 30.2139 56.2026 29.6994 58.1466C29.5543 58.6926 29.3102 58.9558 28.6703 59.0479C26.114 59.4097 23.584 59.311 21.0508 58.8933C20.5857 58.8176 20.5165 58.6466 20.6484 58.2387C21.4763 55.6368 22.2943 53.0349 23.109 50.4297C24.2734 46.7094 25.4246 42.9891 26.5955 39.2688C27.905 35.1012 29.231 30.9368 30.5504 26.7692C31.0386 25.2232 31.5465 23.6838 32.0149 22.1345C32.1172 21.8022 32.2656 21.6871 32.5987 21.641C35.5344 21.2529 38.47 21.2924 41.4056 21.6279C41.7157 21.6641 41.94 21.7266 42.0455 22.0752C43.1143 25.585 44.1994 29.0882 45.2813 32.5947C46.5018 36.5485 47.7222 40.5023 48.9492 44.4562C50.3742 49.0547 51.8024 53.6533 53.2339 58.2486C53.3626 58.663 53.3461 58.8637 52.8183 58.9327C51.3043 59.1301 49.7936 59.2946 48.0916 59.2781Z" fill="white"/>
<path d="M89.273 48.4926C89.273 47.1998 89.273 45.9037 89.273 44.6108C89.273 44.351 89.2631 44.1075 89.6358 44.1141C91.1762 44.1536 92.7166 44.0615 94.2339 44.499C97.1893 45.3477 98.3768 48.9334 96.3911 51.302C95.616 52.2264 94.4747 52.6113 93.2938 52.8284C92.1064 53.0455 90.9123 52.9567 89.7183 52.9468C89.3291 52.9435 89.2598 52.71 89.2631 52.3777C89.2763 51.0816 89.2697 49.7855 89.273 48.4926Z" fill="#5CB772"/>
<path d="M89.2565 32.9042C89.2565 31.8581 89.2763 30.812 89.2466 29.7659C89.2334 29.233 89.3621 28.9961 89.9624 29.0093C90.9915 29.029 92.0239 29.0027 93.0135 29.3218C94.8639 29.9205 95.8007 31.6607 95.3983 33.6839C95.0057 35.6511 94.0426 36.2958 92.0569 36.661C91.3181 36.7959 90.5396 36.7268 89.781 36.7663C89.3753 36.7893 89.2466 36.6182 89.2532 36.2235C89.273 35.1181 89.2598 34.0095 89.2598 32.9009C89.2598 32.9042 89.2598 32.9042 89.2565 32.9042Z" fill="#5CB772"/>
<path d="M36.8274 31.6835C37.1671 33.0453 37.4838 34.2887 37.7938 35.5321C38.5096 38.4169 39.2056 41.3049 39.9477 44.1832C40.1028 44.7851 39.9147 44.9693 39.354 45.0746C37.53 45.4167 35.7224 45.5055 33.9148 44.9792C33.5058 44.8608 33.3244 44.7193 33.4464 44.2555C34.5218 40.1734 35.5806 36.0847 36.646 31.996C36.6625 31.9302 36.7185 31.8677 36.8274 31.6835Z" fill="#F6BF1C"/>
<path d="M93.4984 122.001C145.136 122.001 186.997 119.571 186.997 116.573C186.997 113.575 145.136 111.145 93.4984 111.145C41.8606 111.145 0 113.575 0 116.573C0 119.571 41.8606 122.001 93.4984 122.001Z" fill="#88BECC"/>
</svg>
